# xmcd CD database file generated by Grip 2.95
# 
# Track frame offsets:
#       150
#       19010
#       32440
#       45942
#       59235
#       74205
#       88190
#       101900
#       113365
#       126220
#       138997
#       150607
#       163652
#       175970
#       187910
#       201415
#       215610
#       228877
#       241965
#       253837
# 
# Disc length: 3535 seconds
# 
# Revision: 3
# Processed by: cddbd v1.4b41PL2 Copyright (c) Steve Scherf et al.
# Submitted via: Grip 2.95
# 
DISCID=1e0dcd14
DTITLE=Various Artist - Blues, Blues, Blues - The Platinum Collection (Disk 2)
DYEAR=1900
DGENRE=
TTITLE0=Leadbelly - Easy Rider
TTITLE1=Bukka White - Black Train Blues
TTITLE2=Robert Johnson - (I Believe I'll) Dust My Broom
TTITLE3=Leroy Carr - Mean Mistreater Mama
TTITLE4=Lonnie Johnson - Four Hands Are Better Than Two
TTITLE5=Blind Willie McTell - Georgia Rag
TTITLE6=Blind Boy Fuller - My Brownskin Sugar Plum
TTITLE7=Robert Johnson - Walkin' Blues
TTITLE8=Big Joe Turner - Sun Risin' Blues
TTITLE9=Champion Jack Dupree - Warehouseman Blues
TTITLE10=Sonny Boy Williamson - Got The Bottle Up And Go
TTITLE11=Brownie McGhee - Born For Bad Luck
TTITLE12=Big Joe Turner - Rebecca
TTITLE13=Brownie McGhee - I'm Calling Daisy
TTITLE14=Sonny Boy Williamson - Sugar Mama Blues
TTITLE15=Blind Willie McTell - Stomp Down Rider
TTITLE16=Lonnie Johnson - Mean Old Bed Bug Blues
TTITLE17=Bukka White - Strange Place Blues
TTITLE18=Arthur "Big Boy" Crudup - Mean Old 'Frisco Blues
TTITLE19=Leadbelly - Rock Island Line
EXTD=
EXTT0=
EXTT1=
EXTT2=
EXTT3=
EXTT4=
EXTT5=
EXTT6=
EXTT7=
EXTT8=
EXTT9=
EXTT10=
EXTT11=
EXTT12=
EXTT13=
EXTT14=
EXTT15=
EXTT16=
EXTT17=
EXTT18=
EXTT19=
PLAYORDER=
